0
SECTION
2
HEADER
9
$ACADVER
1
AC1015
9
$INSUNITS
70
4
0
ENDSEC
0
SECTION
2
TABLES
0
TABLE
2
LTYPE
70
1
0
LTYPE
2
CONTINUOUS
70
0
3
Solid line
72
65
73
0
40
0.0
0
ENDTAB
0
TABLE
2
LAYER
70
5
0
LAYER
2
L-COLUMN
70
0
62
2
6
CONTINUOUS
0
LAYER
2
L-BEAM
70
0
62
5
6
CONTINUOUS
0
LAYER
2
L-PURLIN
70
0
62
3
6
CONTINUOUS
0
LAYER
2
L-BRACE
70
0
62
6
6
CONTINUOUS
0
LAYER
2
L-SUPPORT
70
0
62
1
6
CONTINUOUS
0
ENDTAB
0
ENDSEC
0
SECTION
2
ENTITIES
0
LINE
8
L-COLUMN
10
1879.385
20
-8000.000
30
0.000
11
1879.385
21
-8000.000
31
1534.040
0
LINE
8
L-BEAM
10
0.000
20
-8000.000
30
850.000
11
3758.770
21
-8000.000
31
2218.081
0
LINE
8
L-BRACE
10
1879.385
20
-8000.000
30
300.000
11
328.892
21
-8000.000
31
969.707
0
LINE
8
L-BRACE
10
1879.385
20
-8000.000
30
300.000
11
3429.878
21
-8000.000
31
2098.374
0
LINE
8
L-COLUMN
10
1879.385
20
-6000.000
30
0.000
11
1879.385
21
-6000.000
31
1534.040
0
LINE
8
L-BEAM
10
0.000
20
-6000.000
30
850.000
11
3758.770
21
-6000.000
31
2218.081
0
LINE
8
L-BRACE
10
1879.385
20
-6000.000
30
300.000
11
328.892
21
-6000.000
31
969.707
0
LINE
8
L-BRACE
10
1879.385
20
-6000.000
30
300.000
11
3429.878
21
-6000.000
31
2098.374
0
LINE
8
L-COLUMN
10
1879.385
20
-4000.000
30
0.000
11
1879.385
21
-4000.000
31
1534.040
0
LINE
8
L-BEAM
10
0.000
20
-4000.000
30
850.000
11
3758.770
21
-4000.000
31
2218.081
0
LINE
8
L-BRACE
10
1879.385
20
-4000.000
30
300.000
11
328.892
21
-4000.000
31
969.707
0
LINE
8
L-BRACE
10
1879.385
20
-4000.000
30
300.000
11
3429.878
21
-4000.000
31
2098.374
0
LINE
8
L-COLUMN
10
1879.385
20
-2000.000
30
0.000
11
1879.385
21
-2000.000
31
1534.040
0
LINE
8
L-BEAM
10
0.000
20
-2000.000
30
850.000
11
3758.770
21
-2000.000
31
2218.081
0
LINE
8
L-BRACE
10
1879.385
20
-2000.000
30
300.000
11
328.892
21
-2000.000
31
969.707
0
LINE
8
L-BRACE
10
1879.385
20
-2000.000
30
300.000
11
3429.878
21
-2000.000
31
2098.374
0
LINE
8
L-COLUMN
10
1879.385
20
0.000
30
0.000
11
1879.385
21
0.000
31
1534.040
0
LINE
8
L-BEAM
10
0.000
20
0.000
30
850.000
11
3758.770
21
0.000
31
2218.081
0
LINE
8
L-BRACE
10
1879.385
20
0.000
30
300.000
11
328.892
21
0.000
31
969.707
0
LINE
8
L-BRACE
10
1879.385
20
0.000
30
300.000
11
3429.878
21
0.000
31
2098.374
0
LINE
8
L-COLUMN
10
1879.385
20
2000.000
30
0.000
11
1879.385
21
2000.000
31
1534.040
0
LINE
8
L-BEAM
10
0.000
20
2000.000
30
850.000
11
3758.770
21
2000.000
31
2218.081
0
LINE
8
L-BRACE
10
1879.385
20
2000.000
30
300.000
11
328.892
21
2000.000
31
969.707
0
LINE
8
L-BRACE
10
1879.385
20
2000.000
30
300.000
11
3429.878
21
2000.000
31
2098.374
0
LINE
8
L-COLUMN
10
1879.385
20
4000.000
30
0.000
11
1879.385
21
4000.000
31
1534.040
0
LINE
8
L-BEAM
10
0.000
20
4000.000
30
850.000
11
3758.770
21
4000.000
31
2218.081
0
LINE
8
L-BRACE
10
1879.385
20
4000.000
30
300.000
11
328.892
21
4000.000
31
969.707
0
LINE
8
L-BRACE
10
1879.385
20
4000.000
30
300.000
11
3429.878
21
4000.000
31
2098.374
0
LINE
8
L-COLUMN
10
1879.385
20
6000.000
30
0.000
11
1879.385
21
6000.000
31
1534.040
0
LINE
8
L-BEAM
10
0.000
20
6000.000
30
850.000
11
3758.770
21
6000.000
31
2218.081
0
LINE
8
L-BRACE
10
1879.385
20
6000.000
30
300.000
11
328.892
21
6000.000
31
969.707
0
LINE
8
L-BRACE
10
1879.385
20
6000.000
30
300.000
11
3429.878
21
6000.000
31
2098.374
0
LINE
8
L-COLUMN
10
1879.385
20
8000.000
30
0.000
11
1879.385
21
8000.000
31
1534.040
0
LINE
8
L-BEAM
10
0.000
20
8000.000
30
850.000
11
3758.770
21
8000.000
31
2218.081
0
LINE
8
L-BRACE
10
1879.385
20
8000.000
30
300.000
11
328.892
21
8000.000
31
969.707
0
LINE
8
L-BRACE
10
1879.385
20
8000.000
30
300.000
11
3429.878
21
8000.000
31
2098.374
0
LINE
8
L-PURLIN
10
140.954
20
-8795.000
30
901.303
11
140.954
21
8795.000
31
901.303
0
LINE
8
L-PURLIN
10
1456.524
20
-8795.000
30
1380.131
11
1456.524
21
8795.000
31
1380.131
0
LINE
8
L-PURLIN
10
2300.368
20
-8795.000
30
1687.265
11
2300.368
21
8795.000
31
1687.265
0
LINE
8
L-PURLIN
10
3615.937
20
-8795.000
30
2166.094
11
3615.937
21
8795.000
31
2166.094
0
POINT
8
L-SUPPORT
10
1879.385
20
-8000.000
30
0.000
0
POINT
8
L-SUPPORT
10
1879.385
20
-6000.000
30
0.000
0
POINT
8
L-SUPPORT
10
1879.385
20
-4000.000
30
0.000
0
POINT
8
L-SUPPORT
10
1879.385
20
-2000.000
30
0.000
0
POINT
8
L-SUPPORT
10
1879.385
20
0.000
30
0.000
0
POINT
8
L-SUPPORT
10
1879.385
20
2000.000
30
0.000
0
POINT
8
L-SUPPORT
10
1879.385
20
4000.000
30
0.000
0
POINT
8
L-SUPPORT
10
1879.385
20
6000.000
30
0.000
0
POINT
8
L-SUPPORT
10
1879.385
20
8000.000
30
0.000
0
ENDSEC
0
EOF
